<!--
 This file has been claimed for ownership from @keycloakify/keycloak-account-ui version 260007.0.3.
 To relinquish ownership and restore this file to its original content, run the following command:
 
 $ npx keycloakify own -t 'account/assets/logo.svg' -r
-->

<svg stroke="currentColor" fill="currentColor" stroke-width="0" viewBox="0 0 256 256" color="orange" class="mr-2" height="36" width="36" xmlns="http://www.w3.org/2000/svg" style="color: orange;"><path d="M140,80a12,12,0,1,1-12-12A12,12,0,0,1,140,80Zm92,48A104,104,0,1,1,128,24,104.11,104.11,0,0,1,232,128Zm-92,48a12,12,0,1,0-12,12A12,12,0,0,0,140,176Zm32-92a44.05,44.05,0,0,0-44-44A88,88,0,0,0,81.09,202.42,52,52,0,0,1,128,128,44.05,44.05,0,0,0,172,84Z"></path></svg>