<!--
 This file has been claimed for ownership from @keycloakify/keycloak-admin-ui version 260007.0.4.
 To relinquish ownership and restore this file to its original content, run the following command:

 $ npx keycloakify own -t "admin/assets/icon.svg" -r
-->

<svg xmlns="http://www.w3.org/2000/svg" viewBox="0 0 128 128">
  <!-- Background -->
  <circle cx="64" cy="64" r="60" fill="#1a1a2e"/>
  <!-- YinYang -->
  <g transform="translate(64, 64)">
    <circle cx="0" cy="0" r="40" fill="none" stroke="#f59e0b" stroke-width="2" opacity="0.7"/>
    <path d="M0,-40 A40,40 0 0,1 0,40 A20,20 0 0,1 0,0 A20,20 0 0,0 0,-40" fill="#f59e0b"/>
    <path d="M0,-40 A40,40 0 0,0 0,40 A20,20 0 0,0 0,0 A20,20 0 0,1 0,-40" fill="#22d3ee"/>
    <circle cx="0" cy="-20" r="6" fill="#22d3ee"/>
    <circle cx="0" cy="20" r="6" fill="#f59e0b"/>
  </g>
</svg>
